<svg width="24" height="22" viewBox="0 0 24 22" fill="none" xmlns="http://www.w3.org/2000/svg">
<path d="M23.8764 16.9867L19.9145 21.1261C19.8284 21.216 19.7241 21.2877 19.6084 21.3367C19.4926 21.3857 19.3676 21.411 19.2414 21.4109H0.459952C0.370334 21.4109 0.28267 21.3854 0.207731 21.3375C0.132791 21.2896 0.0738392 21.2215 0.0381187 21.1414C0.00239817 21.0613 -0.00853499 20.9729 0.00666254 20.8868C0.0218601 20.8008 0.0625262 20.7209 0.123665 20.6571L4.08858 16.5177C4.17448 16.4281 4.27834 16.3565 4.39376 16.3075C4.5092 16.2585 4.63371 16.2332 4.75963 16.233H23.5401C23.6297 16.233 23.7173 16.2585 23.7923 16.3063C23.8672 16.3542 23.9261 16.4224 23.962 16.5024C23.9976 16.5825 24.0086 16.671 23.9933 16.757C23.9781 16.8431 23.9375 16.9229 23.8764 16.9867ZM19.9145 8.65125C19.8284 8.56134 19.7241 8.48965 19.6084 8.44065C19.4926 8.39167 19.3676 8.36642 19.2414 8.36649H0.459952C0.370334 8.36649 0.28267 8.39198 0.207731 8.43987C0.132791 8.48775 0.0738392 8.5559 0.0381187 8.63595C0.00239817 8.71603 -0.00853499 8.80452 0.00666254 8.89057C0.0218601 8.97659 0.0625262 9.05643 0.123665 9.12028L4.08858 13.2596C4.17448 13.3493 4.27834 13.4208 4.39376 13.4698C4.5092 13.5188 4.63371 13.5442 4.75963 13.5444H23.5401C23.6297 13.5444 23.7173 13.5189 23.7923 13.471C23.8672 13.4231 23.9261 13.355 23.962 13.2749C23.9976 13.1949 24.0086 13.1064 23.9933 13.0203C23.9781 12.9343 23.9375 12.8545 23.8764 12.7906L19.9145 8.65125ZM0.459952 5.67794H19.2414C19.3676 5.67799 19.4926 5.65275 19.6084 5.60375C19.7241 5.55476 19.8284 5.48306 19.9145 5.39315L23.8764 1.25379C23.9375 1.18996 23.9781 1.11012 23.9933 1.02408C24.0086 0.93804 23.9976 0.849552 23.962 0.769484C23.9261 0.689417 23.8672 0.621258 23.7923 0.573384C23.7173 0.525509 23.6297 0.500003 23.5401 0.5H4.75963C4.63371 0.500209 4.5092 0.525592 4.39376 0.574578C4.27834 0.623564 4.17448 0.69511 4.08858 0.784787L0.124687 4.92415C0.0636074 4.9879 0.0229592 5.06768 0.00772717 5.1536C-0.00750485 5.23955 0.00334156 5.32797 0.0389361 5.408C0.0745307 5.48803 0.133326 5.55618 0.208112 5.60413C0.282898 5.65209 0.370422 5.67773 0.459952 5.67794Z" fill="url(#paint0_linear_3102_83591)"/>
<defs>
<linearGradient id="paint0_linear_3102_83591" x1="2.02588" y1="21.9093" x2="21.1469" y2="-0.216727" gradientUnits="userSpaceOnUse">
<stop offset="0.08" stop-color="#9945FF"/>
<stop offset="0.3" stop-color="#8752F3"/>
<stop offset="0.5" stop-color="#5497D5"/>
<stop offset="0.6" stop-color="#43B4CA"/>
<stop offset="0.72" stop-color="#28E0B9"/>
<stop offset="0.97" stop-color="#19FB9B"/>
</linearGradient>
</defs>
</svg>
